<svg width="266" height="37" viewBox="0 0 266 37" fill="none" xmlns="http://www.w3.org/2000/svg">
<path d="M49.9117 10.2146V14.037H41.1202V19.0355H47.8535V22.7109H41.1202V27.8124H49.9117V31.6348H36.1216V10.2146H49.9117ZM63.6997 21.8435C63.8957 22.216 64.082 22.6031 64.2584 23.0049C64.4446 23.4068 64.621 23.8184 64.7876 24.2399C64.9543 23.8086 65.1307 23.3921 65.3169 22.9902C65.5031 22.5786 65.6942 22.1816 65.8903 21.7994L71.3886 10.979C71.4867 10.7928 71.5847 10.6507 71.6827 10.5527C71.7905 10.4449 71.9081 10.3665 72.0355 10.3175C72.1629 10.2685 72.305 10.2391 72.4619 10.2293C72.6285 10.2195 72.8196 10.2146 73.0352 10.2146H76.8282V31.6348H72.4472V19.3148C72.4472 18.717 72.4766 18.0701 72.5354 17.3742L66.8606 28.3857C66.6841 28.7288 66.444 28.9885 66.1402 29.1649C65.8461 29.3413 65.508 29.4295 65.1258 29.4295H64.4495C64.0673 29.4295 63.7242 29.3413 63.4204 29.1649C63.1264 28.9885 62.8911 28.7288 62.7147 28.3857L57.0105 17.3595C57.0497 17.7026 57.0791 18.0456 57.0987 18.3886C57.1183 18.7219 57.1281 19.0306 57.1281 19.3148V31.6348H52.747V10.2146H56.54C56.7557 10.2146 56.9419 10.2195 57.0987 10.2293C57.2653 10.2391 57.4123 10.2685 57.5398 10.3175C57.6672 10.3665 57.7799 10.4449 57.8779 10.5527C57.9857 10.6507 58.0886 10.7928 58.1866 10.979L63.6997 21.8435ZM85.3391 24.4751V31.6348H80.3699V10.2146H87.9265C89.4359 10.2146 90.7297 10.3959 91.8078 10.7585C92.8957 11.1114 93.7876 11.6014 94.4835 12.2287C95.1891 12.8559 95.7086 13.5959 96.0418 14.4486C96.3751 15.3013 96.5417 16.2226 96.5417 17.2125C96.5417 18.2808 96.3702 19.2609 96.0271 20.1528C95.6841 21.0447 95.1597 21.8092 94.4541 22.4463C93.7484 23.0833 92.8516 23.5832 91.7637 23.9458C90.6855 24.2987 89.4065 24.4751 87.9265 24.4751H85.3391ZM85.3391 20.7262H87.9265C89.2203 20.7262 90.1514 20.4175 90.7198 19.8C91.2883 19.1825 91.5725 18.32 91.5725 17.2125C91.5725 16.7225 91.499 16.2765 91.352 15.8747C91.205 15.4728 90.9796 15.1298 90.6757 14.8456C90.3817 14.5515 90.0044 14.3261 89.5437 14.1693C89.0929 14.0125 88.5538 13.9341 87.9265 13.9341H85.3391V20.7262ZM104.56 31.6348H99.5612V10.2146H104.56V31.6348ZM113.508 23.7106V31.6348H108.538V10.2146H115.507C117.056 10.2146 118.374 10.3763 119.462 10.6997C120.559 11.0133 121.451 11.4544 122.137 12.0229C122.833 12.5913 123.338 13.2627 123.652 14.037C123.965 14.8113 124.122 15.6541 124.122 16.5656C124.122 17.2615 124.029 17.9182 123.843 18.5357C123.657 19.1531 123.377 19.7265 123.005 20.2557C122.642 20.7752 122.191 21.2407 121.652 21.6524C121.123 22.064 120.51 22.4022 119.815 22.6668C120.148 22.8334 120.456 23.0392 120.741 23.2843C121.035 23.5293 121.29 23.8282 121.505 24.1811L126.063 31.6348H121.564C120.731 31.6348 120.133 31.3211 119.77 30.6939L116.213 24.4751C116.056 24.2007 115.87 24.0046 115.654 23.887C115.448 23.7694 115.154 23.7106 114.772 23.7106H113.508ZM113.508 20.2851H115.507C116.183 20.2851 116.757 20.2018 117.227 20.0352C117.707 19.8588 118.099 19.6187 118.403 19.3148C118.707 19.011 118.928 18.6582 119.065 18.2563C119.202 17.8447 119.271 17.4036 119.271 16.9332C119.271 15.9923 118.962 15.2572 118.344 14.7279C117.737 14.1987 116.791 13.9341 115.507 13.9341H113.508V20.2851ZM141.883 10.2146V14.037H133.091V19.0355H139.825V22.7109H133.091V27.8124H141.883V31.6348H128.093V10.2146H141.883ZM151.197 31.6348V10.5674H157.916C159.21 10.5674 160.322 10.6948 161.253 10.9496C162.194 11.2045 162.964 11.5671 163.561 12.0376C164.169 12.508 164.615 13.0863 164.899 13.7723C165.193 14.4486 165.34 15.2131 165.34 16.0658C165.34 16.5852 165.257 17.0851 165.09 17.5653C164.934 18.0456 164.688 18.4915 164.355 18.9032C164.032 19.3148 163.62 19.6824 163.12 20.0058C162.63 20.3292 162.052 20.5939 161.386 20.7997C162.924 21.1035 164.086 21.6573 164.87 22.461C165.654 23.2647 166.046 24.3232 166.046 25.6365C166.046 26.5284 165.879 27.3419 165.546 28.077C165.223 28.8121 164.742 29.4442 164.105 29.9735C163.478 30.5027 162.704 30.9144 161.782 31.2084C160.871 31.4927 159.827 31.6348 158.651 31.6348H151.197ZM154.049 22.0346V29.3707H158.607C159.42 29.3707 160.116 29.2776 160.695 29.0914C161.283 28.9052 161.763 28.6454 162.135 28.3122C162.518 27.9692 162.797 27.5673 162.973 27.1067C163.15 26.6362 163.238 26.1217 163.238 25.563C163.238 24.4751 162.851 23.6175 162.077 22.9902C161.312 22.3532 160.151 22.0346 158.592 22.0346H154.049ZM154.049 20.0058H157.813C158.617 20.0058 159.313 19.9176 159.901 19.7412C160.489 19.5648 160.974 19.3197 161.356 19.0061C161.748 18.6925 162.037 18.3151 162.224 17.8741C162.41 17.4232 162.503 16.9332 162.503 16.4039C162.503 15.169 162.13 14.2624 161.386 13.6841C160.641 13.1059 159.484 12.8167 157.916 12.8167H154.049V20.0058ZM178.424 29.3707C179.296 29.3707 180.075 29.2237 180.761 28.9297C181.447 28.6356 182.025 28.224 182.496 27.6947C182.976 27.1655 183.339 26.5333 183.584 25.7982C183.839 25.0632 183.966 24.2546 183.966 23.3725V10.5674H186.803V23.3725C186.803 24.5878 186.607 25.7149 186.215 26.7538C185.833 27.7928 185.279 28.6944 184.554 29.4589C183.839 30.2136 182.961 30.8066 181.923 31.2378C180.884 31.6691 179.717 31.8847 178.424 31.8847C177.13 31.8847 175.963 31.6691 174.925 31.2378C173.886 30.8066 173.004 30.2136 172.278 29.4589C171.553 28.6944 170.994 27.7928 170.602 26.7538C170.22 25.7149 170.029 24.5878 170.029 23.3725V10.5674H172.866V23.3578C172.866 24.2399 172.989 25.0485 173.234 25.7835C173.489 26.5186 173.851 27.1508 174.322 27.68C174.802 28.2093 175.385 28.6258 176.071 28.9297C176.767 29.2237 177.551 29.3707 178.424 29.3707ZM194.844 22.8432V31.6348H192.007V10.5674H197.961C199.294 10.5674 200.446 10.7046 201.416 10.979C202.386 11.2437 203.185 11.6308 203.812 12.1405C204.449 12.6501 204.92 13.2676 205.224 13.9929C205.527 14.7083 205.679 15.512 205.679 16.4039C205.679 17.1488 205.562 17.8447 205.326 18.4915C205.091 19.1384 204.748 19.7216 204.297 20.241C203.856 20.7507 203.312 21.1868 202.666 21.5495C202.028 21.9121 201.303 22.1865 200.49 22.3728C200.843 22.5786 201.156 22.8775 201.431 23.2696L207.576 31.6348H205.047C204.528 31.6348 204.145 31.4338 203.9 31.032L198.431 23.5048C198.265 23.2696 198.084 23.1029 197.887 23.0049C197.691 22.8971 197.397 22.8432 197.005 22.8432H194.844ZM194.844 20.7703H197.829C198.662 20.7703 199.392 20.6723 200.019 20.4763C200.656 20.2704 201.186 19.9862 201.607 19.6236C202.038 19.2511 202.362 18.8101 202.577 18.3004C202.793 17.7908 202.901 17.2272 202.901 16.6097C202.901 15.3552 202.484 14.4094 201.651 13.7723C200.828 13.1353 199.598 12.8167 197.961 12.8167H194.844V20.7703ZM219.341 29.5618C219.909 29.5618 220.428 29.5373 220.899 29.4883C221.379 29.4295 221.83 29.3462 222.251 29.2384C222.673 29.1306 223.07 29.0032 223.442 28.8562C223.815 28.6993 224.187 28.5229 224.56 28.3269V23.6812H221.296C221.11 23.6812 220.958 23.6273 220.84 23.5195C220.732 23.4117 220.678 23.2794 220.678 23.1225V21.5054H227.147V29.5912C226.618 29.9735 226.064 30.3067 225.486 30.591C224.917 30.8752 224.305 31.1153 223.648 31.3113C223.001 31.4976 222.305 31.6348 221.56 31.723C220.816 31.821 220.007 31.87 219.135 31.87C217.606 31.87 216.204 31.6103 214.93 31.0908C213.656 30.5615 212.558 29.8265 211.637 28.8856C210.716 27.9349 209.995 26.7979 209.476 25.4748C208.966 24.1517 208.711 22.6962 208.711 21.1084C208.711 19.5011 208.961 18.0358 209.461 16.7127C209.971 15.3895 210.691 14.2575 211.622 13.3166C212.563 12.3659 213.695 11.6308 215.018 11.1114C216.351 10.5919 217.841 10.3322 219.488 10.3322C220.321 10.3322 221.095 10.3959 221.81 10.5233C222.526 10.6409 223.187 10.8173 223.795 11.0525C224.413 11.278 224.981 11.5573 225.501 11.8905C226.02 12.214 226.505 12.5815 226.956 12.9932L226.147 14.2869C225.981 14.5515 225.765 14.6838 225.501 14.6838C225.344 14.6838 225.172 14.6299 224.986 14.5221C224.741 14.3849 224.467 14.2183 224.163 14.0223C223.859 13.8262 223.486 13.64 223.045 13.4636C222.614 13.2774 222.1 13.1206 221.502 12.9932C220.914 12.8657 220.213 12.802 219.399 12.802C218.213 12.802 217.14 12.9981 216.18 13.3901C215.219 13.7723 214.401 14.3261 213.725 15.0514C213.048 15.7669 212.529 16.6391 212.166 17.6683C211.804 18.6876 211.622 19.8343 211.622 21.1084C211.622 22.4414 211.808 23.6322 212.181 24.6809C212.563 25.7198 213.097 26.6019 213.783 27.3272C214.469 28.0525 215.283 28.6062 216.224 28.9885C217.165 29.3707 218.204 29.5618 219.341 29.5618ZM244.521 10.5674V12.8902H234.406V19.8882H242.595V22.1228H234.406V29.3119H244.521V31.6348H231.539V10.5674H244.521ZM251.755 22.8432V31.6348H248.918V10.5674H254.872C256.205 10.5674 257.357 10.7046 258.327 10.979C259.297 11.2437 260.096 11.6308 260.723 12.1405C261.361 12.6501 261.831 13.2676 262.135 13.9929C262.439 14.7083 262.591 15.512 262.591 16.4039C262.591 17.1488 262.473 17.8447 262.238 18.4915C262.002 19.1384 261.659 19.7216 261.209 20.241C260.768 20.7507 260.224 21.1868 259.577 21.5495C258.94 21.9121 258.214 22.1865 257.401 22.3728C257.754 22.5786 258.067 22.8775 258.342 23.2696L264.487 31.6348H261.958C261.439 31.6348 261.057 31.4338 260.812 31.032L255.343 23.5048C255.176 23.2696 254.995 23.1029 254.799 23.0049C254.603 22.8971 254.309 22.8432 253.917 22.8432H251.755ZM251.755 20.7703H254.74C255.573 20.7703 256.303 20.6723 256.93 20.4763C257.568 20.2704 258.097 19.9862 258.518 19.6236C258.949 19.2511 259.273 18.8101 259.489 18.3004C259.704 17.7908 259.812 17.2272 259.812 16.6097C259.812 15.3552 259.395 14.4094 258.562 13.7723C257.739 13.1353 256.509 12.8167 254.872 12.8167H251.755V20.7703Z" fill="#F59A1B"/>
<g clip-path="url(#clip0_1010_1517)">
<path d="M26.6905 25.4325V27.6458C26.6204 27.9301 26.5726 28.2221 26.4778 28.4979C25.8854 30.2174 24.3893 31.2712 22.5489 31.2751C17.754 31.2751 12.9591 31.2751 8.16424 31.2751C8.05331 31.2751 7.94314 31.2751 7.83221 31.2666C6.01641 31.1749 4.4063 29.796 4.11818 28.004C3.99954 27.2606 4.04114 26.491 4.02573 25.7329C4.01341 25.1166 4.33389 24.8085 4.94634 24.8085C8.64419 24.8085 12.34 24.8085 16.0337 24.8085C16.3004 24.8051 16.5602 24.8929 16.7702 25.0573C17.5462 25.6454 18.3246 26.2298 19.1052 26.8107C19.2039 26.8878 19.304 26.9563 19.4057 27.0303C20.2963 26.3593 21.1676 25.7052 22.0373 25.0481C22.2475 24.8838 22.5078 24.7968 22.7746 24.8016C23.7414 24.8085 24.7083 24.8185 25.6735 24.8016C26.1704 24.7877 26.5133 24.9595 26.6905 25.4325Z" fill="#F43127"/>
<path d="M30.1569 4.98226C29.9257 5.86281 29.6946 6.74182 29.4712 7.62391C28.6407 10.9366 27.8139 14.2492 26.9906 17.5619C26.9428 17.756 26.8673 17.8184 26.6647 17.8184C19.1411 17.8128 11.617 17.811 4.09243 17.813C4.02617 17.813 3.95915 17.8069 3.86131 17.8015C3.70723 17.2013 3.55316 16.5997 3.40447 15.9965C2.50312 12.3952 1.60434 8.79335 0.708125 5.19104C0.652361 5.00808 0.632994 4.81597 0.651118 4.62557C0.75589 3.97845 1.50239 3.70111 2.03781 4.11173C2.88523 4.77041 3.72264 5.44988 4.56313 6.12166L8.16314 9.0029C8.67468 9.41197 8.75017 9.66158 8.54294 10.2756C8.39909 10.6832 8.41191 11.1297 8.57892 11.5283C8.74593 11.927 9.05519 12.2493 9.4466 12.4327C9.82869 12.6122 10.2631 12.6462 10.6685 12.5285C11.0739 12.4109 11.4226 12.1494 11.6491 11.7932C11.8797 11.4336 11.9693 11.0014 11.9008 10.5797C11.8323 10.158 11.6104 9.77642 11.2778 9.50827C10.7717 9.08764 10.7016 8.76254 10.9935 8.17705C12.1748 5.80837 13.3576 3.43892 14.5419 1.06871C14.7222 0.705086 14.9679 0.443155 15.3893 0.442385C15.8108 0.441614 16.0619 0.699694 16.2429 1.06409C17.4242 3.43533 18.6067 5.80452 19.7906 8.17165C20.0841 8.75946 20.0132 9.09612 19.514 9.50519C19.1801 9.77253 18.9571 10.1541 18.8881 10.5763C18.8191 10.9984 18.9089 11.4312 19.1404 11.7909C19.3657 12.1479 19.7134 12.4105 20.1184 12.5296C20.5233 12.6488 20.9579 12.6162 21.3406 12.438C21.7282 12.2586 22.0361 11.9427 22.2057 11.5507C22.3752 11.1586 22.3944 10.7179 22.2596 10.3126C22.0432 9.64232 22.1056 9.43046 22.6448 8.99442C24.6247 7.40897 26.6049 5.82455 28.5853 4.24115C29.2455 3.71344 29.7709 3.829 30.1569 4.58012V4.98226Z" fill="#F43127"/>
<path d="M4.10156 19.5684H26.69V19.8626C26.69 20.5737 26.69 21.2848 26.69 21.9958C26.69 22.6838 26.3503 23.022 25.6616 23.022H5.16932C4.4259 23.022 4.10542 22.6969 4.10465 21.9435C4.10465 21.2517 4.10465 20.5601 4.10465 19.8688L4.10156 19.5684Z" fill="#F43127"/>
</g>
<defs>
<clipPath id="clip0_1010_1517">
<rect width="29.5142" height="30.8316" fill="white" transform="translate(0.642578 0.445312)"/>
</clipPath>
</defs>
</svg>
