<svg width="30" height="32" viewBox="0 0 30 32" fill="none" xmlns="http://www.w3.org/2000/svg">
<g clip-path="url(#clip0_1010_1309)">
<path d="M26.0479 25.1757V27.389C25.9778 27.6732 25.93 27.9652 25.8353 28.241C25.2428 29.9605 23.7467 31.0144 21.9063 31.0183C17.1114 31.0183 12.3165 31.0183 7.52166 31.0183C7.41073 31.0183 7.30056 31.0183 7.18963 31.0098C5.37383 30.9181 3.76373 29.5391 3.4756 27.7472C3.35696 27.0038 3.39856 26.2342 3.38316 25.4761C3.37083 24.8598 3.69131 24.5516 4.30377 24.5516C8.00161 24.5516 11.6974 24.5516 15.3911 24.5516C15.6578 24.5482 15.9177 24.636 16.1276 24.8005C16.9037 25.3885 17.682 25.973 18.4627 26.5539C18.5613 26.6309 18.6614 26.6995 18.7631 26.7734C19.6537 26.1024 20.525 25.4484 21.3948 24.7912C21.605 24.627 21.8653 24.5399 22.132 24.5447C23.0988 24.5516 24.0657 24.5617 25.031 24.5447C25.5279 24.5308 25.8707 24.7026 26.0479 25.1757Z" fill="#F43127"/>
<path d="M29.5143 4.72543C29.2832 5.60598 29.052 6.48498 28.8286 7.36707C27.9982 10.6797 27.1713 13.9924 26.348 17.305C26.3002 17.4992 26.2247 17.5616 26.0221 17.5616C18.4985 17.5559 10.9745 17.5541 3.44985 17.5562C3.38359 17.5562 3.31657 17.55 3.21873 17.5446C3.06465 16.9445 2.91058 16.3428 2.76189 15.7396C1.86054 12.1383 0.961762 8.53652 0.0655473 4.9342C0.0097831 4.75125 -0.00958399 4.55914 0.00853954 4.36874C0.113312 3.72161 0.859815 3.44428 1.39523 3.85489C2.24266 4.51357 3.08007 5.19305 3.92056 5.86482L7.52056 8.74606C8.0321 9.15514 8.1076 9.40474 7.90036 10.0187C7.75651 10.4263 7.76933 10.8728 7.93634 11.2715C8.10335 11.6701 8.41261 11.9925 8.80402 12.1758C9.18611 12.3553 9.62053 12.3894 10.0259 12.2717C10.4314 12.154 10.78 11.8926 11.0066 11.5364C11.2371 11.1767 11.3268 10.7446 11.2582 10.3228C11.1897 9.90113 10.9678 9.51959 10.6352 9.25144C10.1291 8.83081 10.059 8.5057 10.351 7.92021C11.5322 5.55153 12.715 3.18209 13.8993 0.811872C14.0796 0.44825 14.3254 0.186319 14.7468 0.185549C15.1682 0.184778 15.4193 0.442858 15.6004 0.80725C16.7816 3.17849 17.9642 5.54768 19.148 7.91482C19.4415 8.50262 19.3706 8.83928 18.8714 9.24835C18.5375 9.5157 18.3145 9.8973 18.2455 10.3194C18.1765 10.7416 18.2664 11.1743 18.4978 11.5341C18.7231 11.8911 19.0708 12.1537 19.4758 12.2728C19.8808 12.3919 20.3153 12.3594 20.698 12.1812C21.0856 12.0018 21.3936 11.6859 21.5631 11.2938C21.7326 10.9018 21.7518 10.461 21.6171 10.0557C21.4006 9.38548 21.463 9.17363 22.0023 8.73759C23.9821 7.15214 25.9623 5.56771 27.9427 3.98432C28.6029 3.4566 29.1283 3.57216 29.5143 4.32328V4.72543Z" fill="#F43127"/>
<path d="M3.45898 19.3115H26.0474V19.6058C26.0474 20.3169 26.0474 21.0279 26.0474 21.739C26.0474 22.427 25.7077 22.7652 25.019 22.7652H4.52674C3.78332 22.7652 3.46284 22.4401 3.46207 21.6866C3.46207 20.9948 3.46207 20.3033 3.46207 19.612L3.45898 19.3115Z" fill="#F43127"/>
</g>
<defs>
<clipPath id="clip0_1010_1309">
<rect width="29.5142" height="30.8316" fill="white" transform="translate(0 0.188477)"/>
</clipPath>
</defs>
</svg>
